<svg xmlns="http://www.w3.org/2000/svg" version="1.2" viewBox="91 589.68 1375.27 700.96">
	<title>Untitled-Artwork</title>
	<style>
		.s0 { fill: #000000 } 
		.s1 { fill: #0d88ed } 
		.s2 { fill: #84869a } 
		.s3 { fill: #ba2a1f } 
	</style>
	<g id="vector graphics">
		<g id="5ten motors color">
			<path id="Path 0" class="s0" d="m255.1 591.1c-1.8 1.1-3.8 4.4-6.7 11.5-2.3 5.4-9.8 23.5-16.8 40.1-6.9 16.7-18.3 43.9-25.2 60.5-6.9 16.7-18.1 43.6-24.9 59.8-6.8 16.2-16 38.3-20.5 49-4.5 10.7-8.9 21.2-9.6 23.2-0.8 2.1-1.1 5-0.8 6.5 0.4 1.6 1.4 3.6 2.3 4.6 0.9 1 2.9 2.2 4.6 2.7 1.7 0.4 56.1 1.1 121 1.4 64.9 0.4 133.6 0.6 152.8 0.6 22.1 0 34.9 0.4 35.2 1 0.3 0.5-3.1 15.3-7.6 32.7-6.9 27.2-12.2 44.2-36.8 118.3l-28.8 86.5c-30.5 0.4-39.3 0.2-39.3-0.3 0-0.4 2-6.8 4.6-14.2 2.5-7.4 14.7-43.4 27.1-80 12.4-36.6 23-68.1 23.6-70 0.8-2.6 0.7-4.3-0.1-6.5-0.7-1.6-2.4-3.7-4-4.6-2.4-1.5-10.5-1.7-75.2-2.3-39.9-0.3-99.1-0.9-131.5-1.2-32.5-0.4-59.9-0.4-61-0.1-1.1 0.3-3.2 2.3-4.7 4.4-1.5 2.1-11.5 25.7-22.3 52.5-14 35-19.5 49.9-19.5 52.8 0 2.5 0.7 4.8 1.9 6.2 1.1 1.3 28.7 33.5 61.3 71.6 42.7 49.9 59.9 69.2 61.3 69.2 1.1 0 3.7 0.6 5.7 1.5 3.4 1.3 25.8 1.5 192.8 1.5 179.5 0 189 0.1 188.5 1.7-0.2 1-6.3 21.1-13.5 44.8-7.2 23.7-14.4 47-16.1 52-1.6 5-2.9 10.3-2.9 12 0 1.7 0.4 3.5 0.8 4.1 0.4 0.5 2.3 2.2 4.2 3.7 3 2.2 4.2 2.6 8.5 2.2 2.7-0.2 27-0.9 54-1.5 27-0.5 57.4-1.1 67.7-1.2 18.5-0.3 18.8-0.3 21.3-2.8 2.3-2.2 6-16 32-119.5 16.1-64.3 40.6-162 54.4-217 13.8-55 25.1-101.1 25.1-102.5 0-1.4-0.9-4-2-5.8-1.1-1.7-2.3-3.2-2.8-3.2-0.4 0-9-5.8-19.2-12.9-10.2-7.1-18.6-13.4-18.8-14-0.1-0.8 29.9-0.9 112-0.4 61.8 0.3 113.5 0.3 115 0 1.7-0.4 3.2-1.7 3.8-3.2 0.5-1.4 1.5-2.5 2-2.5 0.5 0 14.5-27 31-60 24.3-48.7 30-60.8 30-64 0-2.2-0.2-4.7-0.5-5.5-0.3-0.8-1.7-1.5-3.3-1.5-1.5 0-3.6-0.7-4.7-1.5-1.7-1.3-22.1-1.5-162.8-1.5-127.9 0-160.7-0.3-160.7-1.3 0-0.6 7.2-15.6 16-33.2 12.7-25.3 16-32.8 16-36 0-2.2-0.5-4.6-1.2-5.3-0.7-0.7-2.3-1.2-3.6-1.2-1.2 0-3.2-0.7-4.5-1.5-1.9-1.3-35.1-1.5-262.1-1.7-233.8-0.3-260.2-0.1-262.5 1.3z"/>
			<path id="Path 1" class="s1" d="m262 620.3c-2.3 5.6-5.9 14.3-8 19.2-2.1 5-8.4 20-14 33.5-5.7 13.5-11.8 28.3-13.7 33-1.9 4.7-6.4 15.5-10 24-3.6 8.5-8.7 20.7-11.3 27-2.6 6.3-8.3 19.8-12.5 30-4.2 10.2-9.9 23.8-12.6 30.3-2.7 6.4-4.8 11.9-4.7 12.1 0.2 0.2 27.7 0.7 61.3 1 33.6 0.3 102.6 0.9 153.5 1.2 77.2 0.5 92.9 0.8 94.8 2 1.2 0.8 2.9 3 3.7 4.9 1.4 3.3 1.3 4.4-3.4 22.8-2.8 10.5-7.5 28.9-10.5 40.7-3.7 14.3-15.7 51.9-35.9 112.5-30.3 90.9-30.4 91-33.3 91.5-1.6 0.3-4.6 1.4-6.6 2.3-3.3 1.5-7.5 1.7-31.1 1.7-15.7 0-28.6-0.4-30.4-1-2.3-0.7-3.3-1.6-3.3-3 0-1.1-0.8-3.4-1.7-5l-1.8-3c43.4-128.6 55.8-166.2 55.5-166.4-0.3-0.2-54.3-0.7-120-1.1l-119.5-0.7c-31.5 78.3-34.8 87.5-34 89 0.5 1.1 26 31 56.5 66.6l55.5 64.6h388c3.7-12.8 5.6-19.4 6.5-23 1-3.6 7.1-25.4 13.5-48.5 6.4-23.1 13.2-47.4 15-54 1.9-6.6 12-43 22.5-81 10.5-37.9 20.2-72.9 21.5-77.7 1.4-4.9 3.6-12.7 5-17.5 1.3-4.9 4-14.6 6-21.8 2-7.1 3.8-13.8 4-14.7 0.5-1.7-6.9-1.8-144.3-1.8-142.2-0.1-144.8-0.1-147.9-2-2.3-1.4-3.5-3-3.9-5.2-0.3-1.8-0.3-4.2 0-5.3 0.3-1.1 3.2-6.9 6.4-13 3.2-6 10.5-20 16.2-31 5.6-11 17-33 25.2-49 8.6-16.8 16.2-30.2 17.9-31.7l2.9-2.8h255l30-60h-497.8z"/>
			<path id="Path 2" fill-rule="evenodd" class="s0" d="m989 832c125.5 0 130.6 0.1 134 1.9 2.8 1.4 3.6 2.5 3.8 5.2 0.2 1.9-2 12.4-4.8 23.4-2.8 11-6.9 27-9.1 35.5-2.2 8.5-4.4 17.1-4.9 19-0.5 1.9-1.8 4.5-5 8h-95c-62.3 0-95.2 0.3-95.5 1-0.3 0.5 1.6 2.1 4.3 3.4 2.6 1.4 5.5 3 6.5 3.8 1.8 1.2 1.5 2.2-4.3 18.3-3.3 9.4-6 17.1-5.8 17.1 0.2 0.1 22.3 0.9 49.3 1.9 27 0.9 49.7 2.1 50.5 2.6 0.8 0.4 2 3 2.7 5.6 1.1 4.5 0.8 6.1-4 25.3-4.9 19.5-5.3 20.5-7.7 20.8-1.4 0.2-2.9 0.8-3.4 1.3-0.6 0.5-24.4 0.9-112.6 0.9l-0.9 3.2c-0.5 1.8-2.5 9.1-4.5 16.3-1.9 7.2-8.2 30.8-13.9 52.5-5.8 21.7-10.7 40.7-11.1 42.3-0.3 1.5-1.6 3.4-2.9 4.2-1.8 1.2-8.5 1.5-78.2 1.6l-2.3-2.3c-1.3-1.3-2.2-3.5-2.2-5 0-1.6 0.9-5.2 1.9-8.1 1.1-2.8 6.3-21.6 11.6-41.7 5.3-20.1 12.1-45.5 15-56.5 3-11 10.9-40.5 17.5-65.5 6.7-25 14.8-55.4 18-67.5 3.2-12.1 8.2-30.8 11-41.5 2.9-10.7 5.8-20.2 6.6-21 0.7-0.8 1.3-2 1.2-2.7-0.1-0.7 0.7-1.7 1.8-2.2 1.3-0.7 45.7-1.1 132.4-1.1zm210.8 0c53.6 0 61.5 0.2 63.9 1.6 2.7 1.4 3.9 5.7 52.7 183.9l0.1 64.3c0 35.4-0.2 64.5-0.5 64.7-0.3 0.2-13.8 0.4-59.5 0.7l-2.3-2.6c-1.2-1.4-2.2-3.3-2.2-4.1 0-0.8-11.3-42.8-25.1-93.3-13.9-50.4-25.3-92.7-25.5-94-0.2-1.2-0.9-2.2-1.4-2.2-0.5 0-1.4 1.7-1.9 3.7-0.4 2.1-12.2 45.1-26.2 95.7-25.1 90.9-25.4 91.9-28.4 93.4-2.4 1.2-8.8 1.7-31 2.3-15.4 0.4-34.2 0.9-41.7 1.1-13.4 0.3-13.7 0.3-16.2-2.2-1.5-1.4-2.6-3.3-2.6-4.3 0-0.9 0.9-4.5 1.9-8 1.1-3.4 6.3-22.6 11.6-42.7 5.3-20.1 12.1-45.5 15-56.5 3-11 10.9-40.5 17.5-65.5 6.7-25 14.8-55.4 18-67.5 3.2-12.1 8.2-30.8 11-41.5 2.9-10.7 5.8-20.2 6.6-21 0.7-0.8 1.3-2 1.2-2.7-0.1-0.7 0.7-1.7 1.8-2.2 1.2-0.7 23.5-1 63.1-1.1zm221.3 0c31.2 0 40.9 0.3 42.1 1.2 0.9 0.7 2.1 3.2 2.7 5.5 1.1 4.1 0.5 7-12.8 56.8-7.7 28.9-20.3 76.2-28.1 105.2-7.7 29.1-15.8 59.3-17.9 67.3-2.1 8-7.3 27.2-11.4 42.7-4.2 15.6-7.6 29.1-7.6 30 0 1-1.1 2.9-5.2 6.8l-28.6-0.2c-15.8-0.2-28.9-0.6-29.2-0.9-0.3-0.3-0.6-31.2-0.6-68.7-0.1-59.6 0.1-68.5 1.4-70.7 0.8-1.4 2.3-5.9 3.3-10 1-4.1 11.3-41.9 22.9-84 11.6-42.1 21.4-76.8 21.8-77.2 0.4-0.4 2-1.4 3.7-2.2 2.6-1.4 8.8-1.6 43.5-1.6zm-442.8 222.1c79.5-0.1 84.9 0 86.4 1.7 0.9 0.9 2.1 2.7 2.5 4 0.6 1.4 0.4 3.5-0.4 6-0.8 2-5.6 20.5-10.8 41.1-9 35.7-9.5 37.4-12.2 38.7-2.2 1.2-18.1 1.4-89.5 1.4-81.3 0-86.8-0.1-87.8-1.8-0.8-1.3-0.7-3.4 0.6-8.7 0.9-3.8 5.7-23.1 19.5-78.6l3.5-1.9c3.4-1.8 7.1-1.9 88.2-1.9zm366.5 115.9c27.7 0.4 33.5 0.7 34.8 2 0.8 0.8 2 3.4 2.5 5.7 0.6 2.4 0.7 4.9 0.3 5.5-0.4 0.7-1.6 5.8-4.8 21.3l-11.8 0.2c-6.4 0.2-12.6-0.2-13.7-0.7-1.6-0.8-1.9-1.7-1-9l-15.3 0.1c-8.3 0-15.9 0.4-16.7 0.9-1.1 0.6-1.2 0.9-0.3 1.4 0.7 0.3 1.3 1.5 1.3 2.6 0 1.6 1 2.2 4.7 3 2.7 0.5 13.3 2.6 23.8 4.6 17.3 3.3 19.2 3.9 21.7 6.5q2.8 2.9 2.8 6.1c0 1.8-1.4 9.4-3.1 16.8-1.7 7.4-3.5 14.3-4 15.2-0.5 1-2.2 2.5-3.9 3.3-1.9 1-5.9 1.5-19 1.5l0.6-4.8c0.3-2.6 1.1-7.9 1.9-11.7 0.7-3.8 1.6-8.9 1.9-11.3 0.5-3.4 0.3-4.3-1.2-4.7-0.9-0.3-11.7-2.5-24-5-12.2-2.5-23.5-5.2-25.2-6-1.7-0.8-3.7-3-4.5-5-1.4-3.2-1.3-4.5 0.6-15.3 1.2-6.4 3.1-13.7 4.3-16.1 1.2-2.4 3-4.8 4.1-5.4 1.1-0.6 3.8-1.3 6-1.6 2.2-0.4 18.9-0.4 37.2-0.1zm-340.7 0h39.3c21.5 0 40.7 0.3 42.5 0.7 2.6 0.7 3.2 1.3 3.2 3.3 0 1.4-1.1 6.5-2.5 11.5-1.4 5.1-3.3 9.5-4.2 10.3-1.3 0.9-6.4 1.2-33.3 1.2l1.6 2.7c1.2 2.2 1.4 3.6 0.6 6.3-0.5 1.9-4.2 13.8-8.1 26.5-4.3 13.9-7.9 23.5-8.9 24.3-1.1 0.8-5.1 1.2-11.5 1.2-5.3 0-10.6-0.5-11.7-1-1.1-0.6-2-2-2-3.3 0-1.2 4-14.4 9-29.2 5-14.8 9-27.1 9-27.3 0-0.1-6.3-0.2-14-0.2-7.7 0-14.7-0.2-15.5-0.5-0.8-0.3-1.5-1.5-1.5-2.8 0-1.2 1.2-6 2.6-10.7 1.4-4.7 3.2-9.5 4-10.8zm-200.6 1.5l8.3 22c4.6 12.1 8.5 22.3 8.8 22.5 0.2 0.3 0.6 0.3 0.8 0 0.2-0.2 6.5-10.2 27.7-44l11.2-0.5c6.2-0.4 14-0.5 23.3 0l0.2 18c0.1 10-0.1 29.1-1.2 67l-16-0.3c-8.8-0.1-16.5-0.7-17-1.3-0.6-0.5-0.9-4-0.8-7.6 0.1-3.7-0.1-9.2-1.4-17.8l-3.9 8.3c-2.2 4.6-4.5 8.5-5.2 8.8-0.7 0.2-1.9 0.2-2.7-0.1-0.9-0.2-1.8-1.5-2.2-2.7-0.3-1.2-2.4-6.1-4.5-10.8-2.1-4.6-4.1-8.1-4.3-7.7-0.3 0.4 1.5 6.3 4 13 2.5 6.7 4.5 13.5 4.5 15 0 2.3-0.6 2.9-3.3 3.5-1.8 0.5-7.7 0.6-23.2 0l-7.5-15.9c-4.2-8.7-7.8-15.9-8-15.9-0.3 0-2.2 6.9-4.3 15.3-2.1 8.4-4.3 15.8-4.9 16.5-0.8 0.8-3.9 1.2-8.8 1.2-4.1-0.1-11.4-0.4-16-0.8-6.4-0.5-8.6-1-8.8-2.2-0.2-0.8 3.8-18.4 8.7-39.2 5-20.8 9-39 8.9-40.6-0.1-1.5 0.2-3.1 0.7-3.5 0.5-0.4 9-0.6 36.9-0.2zm149.1-0.3c23.4-0.1 28.3 0.1 30.2 1.3 1.3 0.9 3.2 3.5 4.4 5.8 1.7 3.4 2 5.4 1.6 10.2-0.3 3.3-3 16.2-6 28.5-3 12.4-6.4 24.3-7.5 26.5-1.1 2.3-4.1 6-6.6 8.3-3.9 3.6-5.3 4.3-8.9 4.3-2.3 0.1-13.2 0-24.2-0.1-11 0-20.2-0.2-20.4-0.3-0.1-0.1 0.2-1.7 0.7-3.7 0.5-1.9 1.2-5.4 1.6-7.7 0.3-2.6 0.2-4.3-0.4-4.3-0.6 0-0.9 0.6-0.8 1.3 0.1 0.7-0.6 2.8-1.4 4.7-0.9 2-2.1 4.9-2.6 6.5-0.9 2.8-1.3 3-4.8 2.8-2.2-0.2-5.9-1.3-8.4-2.5-2.4-1.2-5.2-3.6-6.2-5.3-1.1-1.7-1.8-4.9-1.8-7.7 0-2.6 2.3-15 5.1-27.5 2.8-12.5 5.2-23.8 5.5-25 0.2-1.2 2.1-4.1 4.1-6.4 2.1-2.2 5.6-5 7.8-6.1 2.2-1.2 5.5-2.4 7.5-2.8 1.9-0.4 16.1-0.8 31.5-0.8zm-28.4 28.6c0.8 1.3 0.7 3.6-0.5 9.2-0.9 4.2-2.2 10.5-3 14-0.8 3.6-1.8 7.5-2.3 8.5-0.7 1.8-0.5 1.9 1.2 1.1 1.1-0.6 8.9-1.2 17.5-1.5l15.5-0.6c4.9-24 6.4-31.5 6.4-32.2 0-1-4-1.3-17.3-1.3-9.5 0-17.6 0.3-18 0.5-0.3 0.3-0.1 1.3 0.5 2.3zm221.9-28.4c17.1 0.1 25.1 0.6 26.7 1.4 1.3 0.7 3.2 3.2 4.2 5.5 1.1 2.3 2 6.3 2 8.7 0 2.5-0.6 6.6-1.3 9-0.8 2.5-3.5 13.3-6 24-2.5 10.8-5.3 21.1-6.2 23-1 2-3.1 5.1-4.8 6.9-1.7 1.8-4.4 4-5.9 4.7-2.1 1.1-7.9 1.4-26.2 1.4-18.4 0-23.4-0.2-23.1-1.2 0.2-0.7 1.1-5.5 2-10.8 1-5.2 2.1-10.1 2.6-11 0.7-1.2 3.9-1.5 32.5-2l3.2-15.7c1.8-8.7 3.3-16.3 3.3-17 0-1-4.4-1.3-37-1.3l1.5 2.3c1.4 2 1.4 3-0.1 9.2-0.9 3.9-1.9 9.1-2.4 11.5-0.5 2.5-2 9.3-3.5 15-1.5 5.8-3.1 11-3.5 11.5-0.5 0.6-1.2 2.8-1.7 4.9-0.5 2.2-1.2 4.1-1.6 4.3-0.4 0.2-3.2-0.3-6.2-1.2-3.3-0.8-7-2.8-9.1-4.7-3-2.7-3.7-4.1-4.1-8.3-0.4-3.7 0.7-10.3 4.5-27 2.8-12 5.3-23.5 5.6-25.5 0.3-1.9 2-5.2 3.8-7.3 1.8-2.2 5.3-5.1 7.8-6.5 2.9-1.6 6.9-2.8 11.5-3.2 3.8-0.4 18-0.7 31.5-0.6zm83.5-0.4c36.8 0 37 0 40.4 2.3 1.9 1.2 4.2 3.6 5.2 5.2 1.8 3 1.7 3.4-2.8 23.5-2.4 11.3-5 21.2-5.7 22-0.6 0.7-2.3 2.1-6.4 4.5l16.4 22c9.6 13 16.3 23 16.3 24.3 0.1 2.2 0.1 2.2-17.4 2.2-9.7 0-18.5-0.3-19.8-0.8-1.7-0.7-4.8-6.4-23.2-46.2h-12.3c-11.8 0-12.2 0.1-11 2 1 1.6 0.9 3.7-1 12.2-1.3 5.7-2.8 10.9-3.5 11.6-0.9 1-5.4 1.3-17 1.3-14.1 0-15.8-0.2-16.4-1.8-0.3-1 2.3-13 12.2-51.8l31.5-0.2c23.4-0.2 31.6-0.6 32.1-1.5 0.4-0.7 0.3-2-0.2-3-0.9-1.6-3.3-1.7-30.7-1.7-23.1 0-30-0.3-30.9-1.3-1-1-0.6-3.6 1.7-12.2 1.7-6 3.6-11.3 4.3-11.7 0.6-0.5 17.8-0.8 38.2-0.9zm85 49.5l0.5 8.5h14.5c10.7 0 14.6 0.4 14.8 1.3 0.2 0.7-0.8 7-4.8 26.9l-51.4-0.7-2.6-2.5c-2.5-2.2-2.7-3-2.3-8.5 0.3-3.2 1.3-9.8 2.3-14.5 0.9-4.6 2.2-9 2.8-9.7 0.7-1 4.2-1.2 26.2-0.8z"/>
			<path id="Path 3" class="s2" d="m461.9 739.8l-25.6 49.7c269 0.9 287.5 1.2 289.4 2.5 1.2 0.8 2.7 2.5 3.3 3.8 0.5 1.2 1 2.9 1 3.7 0 0.8-2 8.4-4.4 16.8-2.4 8.3-6.9 24.2-9.9 35.2-3.1 11-8.6 30.8-12.2 44-3.7 13.2-8.1 29.4-10 36-1.9 6.6-12 43-22.5 81-10.5 38-20.2 72.8-21.5 77.5-1.3 4.7-4.4 15.7-6.9 24.5-2.4 8.8-6.4 23-8.7 31.5-2.7 9.5-5 16.1-6.1 17-1 0.8-1.8 2.2-1.8 3 0 0.8-0.4 2-0.9 2.5-0.6 0.5-3.4 9.1-6.4 19-3 9.9-9.8 32.4-15.2 50-5.3 17.6-9.5 32-9.3 32 0.2 0.1 20.1-0.2 44.3-0.7 24.2-0.4 50.7-0.9 58.9-1l15-0.3c8.1-32.5 31.4-125.7 57-228 25.7-102.3 46.9-186.7 47.1-187.5 0.4-1-2.5-3.6-8.7-7.9-5.1-3.6-18.7-12.9-30.3-20.9-11.5-7.9-21.6-14.7-22.4-15.1-0.8-0.3-2-1.8-2.7-3.3-0.8-1.6-1.4-4.1-1.4-5.8 0-1.6 0.5-3.9 1-5 0.6-1.1 2.7-2.7 4.8-3.6 3.4-1.5 15.3-1.5 130.2-0.8l126.5 0.7c38.4-76.6 49.5-99.1 49.5-99.5 0-0.5-129.5-0.8-287.7-0.8h-287.8z"/>
			<path id="Path 4" class="s3" d="m1305.4 1176.8c-0.6 0.4-1.8 2-2.6 3.7-0.9 1.7-2.3 7-3.2 12-0.9 5-1.6 10.2-1.6 11.8 0 2.1 0.7 3 3.2 4.1 1.8 0.7 13.6 3.4 26.3 5.9 12.6 2.5 23.8 4.8 24.7 5.1 1.4 0.5 1.8 1.7 1.8 5.9 0 2.8-0.9 9.3-2 14.2-1.1 5-2 9.6-2 10.3 0 0.7 1.4 1.2 3.9 1.2 2.2 0 4.7-0.7 5.5-1.5 0.9-0.8 1.8-2.3 2.1-3.2 0.3-1 1.6-7.2 2.9-13.8 1.7-8.2 2.2-12.6 1.5-13.7-0.5-1-2.6-2.1-4.7-2.4-2-0.4-13.4-2.6-25.2-5-16.6-3.3-21.8-4.7-22.7-6.1-0.7-1-1-2.4-0.7-3 0.2-0.7-1.4-2.5-3.6-4-2.3-1.6-4.3-3.5-4.6-4.3-0.3-0.8 0.5-2.3 1.8-3.3 2.1-1.6 4.7-1.8 25.8-1.8 20 0 23.7 0.2 24.7 1.6 0.8 0.9 1.1 3 0.8 5l-0.5 3.5 15.5-0.5c3.8-19.4 3.8-20.7 2.5-21.5-0.8-0.6-16.3-1-35-1-18.4 0-34 0.4-34.6 0.8zm-532.9 1.5c-0.2 0.6-4.3 17.2-8.9 36.7-4.7 19.5-8.4 35.6-8.3 35.6 0.1 0.1 5.1 0.3 11.1 0.5l10.9 0.4c10-39.1 10.3-40 12.6-40 2.2 0 3.4 2.1 11.7 19.5l9.2 19.5c11.8 0.4 15.2 0.2 15.2-0.2 0-0.5-5.2-14.8-11.6-31.8-6.4-17-12.5-33.4-13.5-36.2l-1.9-5.3c-22.5 0-26.2 0.3-26.5 1.3zm87-0.4l-7 0.6c-17.4 27.1-22.8 35.9-23.1 37-0.3 1.2 1 5.5 3.3 10.8 2.1 4.8 4 8.8 4.3 8.8 0.3 0 3.1-5.5 6.2-12.1 5.1-10.4 6.1-12 8-11.7 2.3 0.2 2.3 0.6 3.3 19.3l1 19.1c16.3 0.9 21.1 1 21.1 1 0.1-0.1 0.4-16.7 0.7-36.9l0.6-36.8c-8.8 0.3-14.5 0.6-18.4 0.9zm66 0c-3.3 0.4-7.1 1.3-8.5 2-1.4 0.7-3.8 2.5-5.3 4-1.5 1.4-3.3 4.4-3.9 6.6-0.5 2.2-3.2 13.5-5.9 25-2.7 11.5-4.9 22.5-4.9 24.3 0 2.3 0.8 3.9 3 5.7 1.6 1.4 3.4 2.5 4 2.5 0.5 0 1.6 0.2 2.2 0.5 0.9 0.4 2.1-2.8 4.1-10.7 1.6-6.2 3.9-15.9 5.3-21.5 1.3-5.7 2.4-11.3 2.4-12.5 0-1.3-0.9-3.4-2-4.8-1.1-1.4-2-3.5-2-4.7 0-1.3 0.7-2.5 1.5-2.8 0.8-0.3 12.3-0.5 25.5-0.5 18.2 0 24.1 0.3 24.6 1.3 0.3 0.6-1.3 10.7-3.6 22.2-2.3 11.5-4.4 21.3-4.6 21.8-0.2 0.4-7.4 0.7-15.9 0.7-14.5 0-15.6 0.1-16.5 2-0.6 1.1-1.3 4-1.8 6.5l-0.7 4.5h38.5c5.8-5.2 8.3-8.7 9.2-11.1 1-2.4 4.2-14.6 7.3-27.1 3-12.6 5.5-23.9 5.5-25.3 0-1.4-0.6-3.7-1.4-5.2-1-2.1-2.4-3-5.2-3.5-2.2-0.4-13.1-0.7-24.4-0.6-11.3 0-23.2 0.4-26.5 0.7zm79.6 5.4c-1.1 3.4-1.8 6.4-1.5 6.7 0.3 0.3 7.2 0.7 15.2 1l14.7 0.5c0.5 3.9-3.3 16.7-8.1 31-4.8 14.3-8.9 26.6-9 27.3-0.3 0.9 1.6 1.2 7.1 1.2h7.5c1.3-5 3.6-12.8 5.9-20.5 2.4-7.7 5.1-16.5 6.2-19.5 1-3 1.9-6.2 1.8-7 0-0.8-1.3-3.1-3-5-1.6-1.9-2.9-4.5-2.9-5.7 0-1.6 0.7-2.5 2.2-2.8 1.3-0.3 10.2-0.5 19.8-0.5l17.5 0.1c2.7-9 3.5-11.9 3.5-12.3 0-0.5-16.8-0.8-37.4-0.8h-37.5zm108-5.3c-2.5 0.4-5.4 1.2-6.5 1.8-1.1 0.6-3.5 2.6-5.2 4.4-2.8 3-3.7 5.6-8.7 27.1-3.1 13.1-5.6 25.5-5.6 27.8 0 3 0.6 4.5 2.7 6.5 1.5 1.3 3.9 2.7 5.3 3 1.3 0.3 2.7 0.1 3-0.4 0.2-0.5 1.5-5.6 2.9-11.3 1.3-5.7 3.6-15.5 5.2-21.8l2.7-11.5c-5.1-8.9-5.2-9.5-3.8-11 1.3-1.4 4.4-1.6 25-1.6 17.9 0 23.7 0.3 24.7 1.3 0.9 1 0.3 5.6-2.9 22.3-2.3 11.5-4.7 21.3-5.3 21.7-0.6 0.4-7.9 0.7-16.3 0.7l-15.2 0.1c-1 4.2-1.6 7-2.1 9-0.5 1.9-0.8 3.5-0.7 3.6 0.2 0.2 9 0.3 19.8 0.4l19.5 0.1c5.2-5.2 7.5-8.4 8.5-10.6 1-2.3 4.4-14.4 7.4-27 3.1-12.7 5.6-24.3 5.6-25.8 0-1.5-0.7-4-1.4-5.5-0.8-1.5-2.4-3.1-3.8-3.5-1.3-0.4-13.1-0.7-26.3-0.6-13.2 0-26.1 0.4-28.5 0.8zm81.1 2.8c-0.6 2-1.4 5.2-1.9 7l-0.7 3.3c54.5-0.1 57.1 0 58.7 1.7 1 0.9 2.3 3.1 2.9 4.8 0.9 2.1 0.9 3.9 0.1 6.5-0.7 2.2-2 3.7-3.4 4.2-1.3 0.4-15.6 0.7-31.8 0.7h-29.5c-7.6 30.7-10 40.1-10.2 40.8-0.3 0.9 2.3 1.3 10.7 1.3 7.8 0 11.1-0.4 11.4-1.3 0.3-0.7 1.2-4.1 2-7.5l1.6-6.2c-10.1-6.3-13.1-8.6-13.1-9.3 0-0.7 0.5-1.7 1.3-2.3 0.8-0.6 9-0.8 23-0.5l21.8 0.6 21.5 46.5c18.9 0 24.4-0.4 24.4-0.8 0-0.4-7-10.1-15.5-21.5-10.2-13.7-15.4-21.5-15.2-22.8 0.2-1.5 1.5-2.6 4.3-3.5 2.2-0.8 4.4-2 5-2.8 0.5-0.7 2.7-9.6 4.8-19.7l3.9-18.4c-4.2-4-5.9-4.1-39.7-4.3l-35.4-0.3zm98.6 46.5c-0.2 0.7-1.2 5.8-2.2 11.3-1.7 9.7-1.7 10 0.1 11.2 1.4 1 7.6 1.3 22.9 1.3h21c1.9-9.7 2.5-13.1 2.5-13.8 0-0.9-3.2-1.2-12.8-1.2-8.6 0-13.3-0.4-14.6-1.3-1.5-1-1.7-2-1.2-5l0.6-3.7c-13.3 0-16 0.4-16.3 1.2z"/>
			<path id="Path 5" class="s2" d="m864.6 852.3c-0.8 2.8-5.7 21.2-11 40.7-5.2 19.5-11.5 43.2-14 52.5-2.4 9.4-9 34.1-14.6 55-5.6 20.9-11.9 44.5-14 52.5-2.1 8-7.5 28.2-12 45-4.4 16.8-8.3 31.3-8.6 32.3-0.4 1.6 1.3 1.7 26.8 1.5l27.1-0.3c1.2-3.9 7.7-28.1 15.1-56.2 7.5-28.2 13.6-53 13.6-55 0-2.1 0.7-4.7 1.6-5.8 1.4-2 3-2 60.5-2.5l59.1-0.5c4.9-18.2 6.1-23.7 5.8-23.9-0.3-0.3-22.3-1.4-49-2.4-30.3-1.1-49.2-2.2-50.5-2.9-1.1-0.7-2.8-1.4-3.8-1.7-1.2-0.4-1.7-1.7-1.7-4.3 0-2.1 2.5-10.5 5.6-18.8 3-8.2 5.3-15.4 5.1-16-0.2-0.5-3.5-2.7-7.3-4.9-3.8-2.1-10.6-5.9-15.2-8.5l-8.2-4.6c0-9.3 0.5-11.8 1.2-12.2 0.7-0.5 50.1-1 109.7-1.3l108.4-0.5c12.1-47.3 15.7-61.3 15.7-61.7 0-0.5-54.9-0.8-121.9-0.8h-122zm280 0c-0.8 2.9-5.8 21.2-11 40.8-5.2 19.5-11.5 43.1-14 52.5-2.4 9.3-9.9 37.4-16.6 62.5-6.7 25-15.7 59-20.1 75.5-4.4 16.5-9.1 34-10.5 39-1.3 4.9-2.3 9.1-2.1 9.2 0.1 0.1 14.2-0.1 31.4-0.5 18.5-0.4 31.6-1.2 32.1-1.7 0.6-0.6 8-26.5 16.5-57.5 8.6-31.1 21.5-78.1 28.7-104.5 7.2-26.4 13.8-49.1 14.6-50.3 0.7-1.2 2.4-2.7 3.6-3.3 1.6-0.8 3.1-0.8 5 0 1.6 0.6 3.4 2.1 4.2 3.3 0.8 1.2 12 41.4 25.1 89.3 13 47.8 26 95.5 28.9 106l5.2 19 36.4 0.5v-109.5c-29.6-108.5-40.3-147.9-43-157.5l-4.7-17.5-108.2-0.6zm240.9-4c-0.2 0.7-6.9 24.9-14.9 53.8-7.9 28.9-18.3 66.7-23 84l-8.6 31.5v114.5l35.3-0.5c1.2-3.9 5.9-21.4 11.2-41.5 5.3-20.1 12.1-45.5 15-56.5 3-11 10.8-40.5 17.5-65.5 6.7-25 14.2-53.2 16.6-62.5 2.5-9.4 6.9-26 9.9-37 3-11 5.5-20.3 5.5-20.8 0-0.4-14.4-0.7-32-0.7-24.7 0-32.2 0.3-32.5 1.2zm-488.4 224.5c-0.6 2.1-4.2 16.3-8.1 31.5l-7 27.8c147.5 0 152-0.1 152.5-1.8 0.3-0.9 3.7-14.9 7.7-31 4-16.1 7.1-29.5 6.8-29.8-0.3-0.2-34.4-0.5-75.7-0.4h-75.2z"/>
		</g>
	</g>
</svg>